<mxfile host="app.diagrams.net" modified="2023-12-29T06:20:30.949Z" agent="Mozilla/5.0 (X11; Linux x86_64) AppleWebKit/537.36 (KHTML, like Gecko) Chrome/120.0.0.0 Safari/537.36" etag="58at348rJxvMfHu7cbvV" version="22.1.15" type="github">
  <diagram name="Page-1" id="ip2V91-t0S0FPxhZ_m5-">
    <mxGraphModel dx="1033" dy="1068" grid="1" gridSize="10" guides="1" tooltips="1" connect="1" arrows="1" fold="1" page="1" pageScale="1" pageWidth="850" pageHeight="1100" math="0" shadow="0">
      <root>
        <mxCell id="0" />
        <mxCell id="1" parent="0" />
        <mxCell id="wI0rlVzmMDE5mdzokUml-1" value="Snap-1" style="ellipse;whiteSpace=wrap;html=1;aspect=fixed;" parent="1" vertex="1">
          <mxGeometry x="80" y="80" width="80" height="80" as="geometry" />
        </mxCell>
        <mxCell id="wI0rlVzmMDE5mdzokUml-5" value="" style="edgeStyle=orthogonalEdgeStyle;rounded=0;orthogonalLoop=1;jettySize=auto;html=1;" parent="1" source="wI0rlVzmMDE5mdzokUml-2" target="wI0rlVzmMDE5mdzokUml-1" edge="1">
          <mxGeometry relative="1" as="geometry" />
        </mxCell>
        <mxCell id="wI0rlVzmMDE5mdzokUml-2" value="Snap-2" style="ellipse;whiteSpace=wrap;html=1;aspect=fixed;" parent="1" vertex="1">
          <mxGeometry x="200" y="80" width="80" height="80" as="geometry" />
        </mxCell>
        <mxCell id="wI0rlVzmMDE5mdzokUml-4" value="" style="edgeStyle=orthogonalEdgeStyle;rounded=0;orthogonalLoop=1;jettySize=auto;html=1;" parent="1" source="wI0rlVzmMDE5mdzokUml-3" target="wI0rlVzmMDE5mdzokUml-2" edge="1">
          <mxGeometry relative="1" as="geometry" />
        </mxCell>
        <mxCell id="wI0rlVzmMDE5mdzokUml-3" value="Snap-3" style="ellipse;whiteSpace=wrap;html=1;aspect=fixed;" parent="1" vertex="1">
          <mxGeometry x="320" y="80" width="80" height="80" as="geometry" />
        </mxCell>
        <mxCell id="wI0rlVzmMDE5mdzokUml-9" value="&lt;font style=&quot;font-size: 13px;&quot;&gt;Base image&lt;/font&gt;" style="text;html=1;strokeColor=none;fillColor=none;align=center;verticalAlign=middle;whiteSpace=wrap;rounded=0;" parent="1" vertex="1">
          <mxGeometry x="320" y="160" width="80" height="40" as="geometry" />
        </mxCell>
        <mxCell id="wI0rlVzmMDE5mdzokUml-11" value="" style="edgeStyle=orthogonalEdgeStyle;rounded=0;orthogonalLoop=1;jettySize=auto;html=1;" parent="1" source="wI0rlVzmMDE5mdzokUml-10" target="wI0rlVzmMDE5mdzokUml-3" edge="1">
          <mxGeometry relative="1" as="geometry" />
        </mxCell>
        <mxCell id="wI0rlVzmMDE5mdzokUml-10" value="temporary" style="ellipse;whiteSpace=wrap;html=1;aspect=fixed;dashed=1;" parent="1" vertex="1">
          <mxGeometry x="440" y="80" width="80" height="80" as="geometry" />
        </mxCell>
        <mxCell id="wI0rlVzmMDE5mdzokUml-12" value="&lt;font style=&quot;font-size: 13px;&quot;&gt;Active image&lt;/font&gt;" style="text;html=1;strokeColor=none;fillColor=none;align=center;verticalAlign=middle;whiteSpace=wrap;rounded=0;" parent="1" vertex="1">
          <mxGeometry x="440" y="160" width="80" height="40" as="geometry" />
        </mxCell>
        <mxCell id="wI0rlVzmMDE5mdzokUml-28" value="&lt;font style=&quot;font-size: 11px;&quot;&gt;Header&lt;/font&gt;" style="rounded=0;whiteSpace=wrap;html=1;fillColor=#d5e8d4;strokeColor=#82b366;" parent="1" vertex="1">
          <mxGeometry x="75" y="320" width="70" height="40" as="geometry" />
        </mxCell>
        <mxCell id="wI0rlVzmMDE5mdzokUml-53" value="Backing image (base)" style="text;html=1;strokeColor=none;fillColor=none;align=center;verticalAlign=middle;whiteSpace=wrap;rounded=0;" parent="1" vertex="1">
          <mxGeometry x="60" y="280" width="100" height="30" as="geometry" />
        </mxCell>
        <mxCell id="wI0rlVzmMDE5mdzokUml-68" value="temporary image&lt;br&gt;(active)" style="text;html=1;strokeColor=none;fillColor=none;align=center;verticalAlign=middle;whiteSpace=wrap;rounded=0;" parent="1" vertex="1">
          <mxGeometry x="240" y="280" width="100" height="30" as="geometry" />
        </mxCell>
        <mxCell id="wI0rlVzmMDE5mdzokUml-71" value="" style="edgeStyle=orthogonalEdgeStyle;rounded=0;orthogonalLoop=1;jettySize=auto;html=1;entryX=0.5;entryY=0;entryDx=0;entryDy=0;" parent="1" source="wI0rlVzmMDE5mdzokUml-72" target="wI0rlVzmMDE5mdzokUml-87" edge="1">
          <mxGeometry relative="1" as="geometry" />
        </mxCell>
        <mxCell id="wI0rlVzmMDE5mdzokUml-72" value="&lt;font style=&quot;font-size: 11px;&quot;&gt;Header&lt;/font&gt;" style="rounded=0;whiteSpace=wrap;html=1;" parent="1" vertex="1">
          <mxGeometry x="990" y="330" width="40" height="60" as="geometry" />
        </mxCell>
        <mxCell id="wI0rlVzmMDE5mdzokUml-73" value="refcount&lt;br&gt;table" style="rounded=0;whiteSpace=wrap;html=1;" parent="1" vertex="1">
          <mxGeometry x="1030" y="330" width="60" height="60" as="geometry" />
        </mxCell>
        <mxCell id="wI0rlVzmMDE5mdzokUml-74" value="refcount&lt;br&gt;block" style="rounded=0;whiteSpace=wrap;html=1;" parent="1" vertex="1">
          <mxGeometry x="1090" y="330" width="60" height="60" as="geometry" />
        </mxCell>
        <mxCell id="wI0rlVzmMDE5mdzokUml-75" style="edgeStyle=orthogonalEdgeStyle;rounded=0;orthogonalLoop=1;jettySize=auto;html=1;exitX=0.5;exitY=0;exitDx=0;exitDy=0;entryX=0.25;entryY=0;entryDx=0;entryDy=0;" parent="1" source="wI0rlVzmMDE5mdzokUml-76" target="wI0rlVzmMDE5mdzokUml-78" edge="1">
          <mxGeometry relative="1" as="geometry">
            <mxPoint x="1220" y="290" as="targetPoint" />
          </mxGeometry>
        </mxCell>
        <mxCell id="wI0rlVzmMDE5mdzokUml-76" value="L1 table" style="rounded=0;whiteSpace=wrap;html=1;" parent="1" vertex="1">
          <mxGeometry x="1150" y="330" width="60" height="60" as="geometry" />
        </mxCell>
        <mxCell id="wI0rlVzmMDE5mdzokUml-77" style="edgeStyle=orthogonalEdgeStyle;rounded=0;orthogonalLoop=1;jettySize=auto;html=1;entryX=0.5;entryY=0;entryDx=0;entryDy=0;" parent="1" source="wI0rlVzmMDE5mdzokUml-78" target="wI0rlVzmMDE5mdzokUml-79" edge="1">
          <mxGeometry relative="1" as="geometry">
            <Array as="points">
              <mxPoint x="1240" y="280" />
              <mxPoint x="1365" y="280" />
            </Array>
          </mxGeometry>
        </mxCell>
        <mxCell id="wI0rlVzmMDE5mdzokUml-78" value="L2 table" style="rounded=0;whiteSpace=wrap;html=1;" parent="1" vertex="1">
          <mxGeometry x="1210" y="330" width="60" height="60" as="geometry" />
        </mxCell>
        <mxCell id="wI0rlVzmMDE5mdzokUml-79" value="data" style="rounded=0;whiteSpace=wrap;html=1;" parent="1" vertex="1">
          <mxGeometry x="1270" y="330" width="190" height="60" as="geometry" />
        </mxCell>
        <mxCell id="wI0rlVzmMDE5mdzokUml-80" style="edgeStyle=orthogonalEdgeStyle;rounded=0;orthogonalLoop=1;jettySize=auto;html=1;exitX=0.5;exitY=0;exitDx=0;exitDy=0;entryX=0.75;entryY=0;entryDx=0;entryDy=0;" parent="1" source="wI0rlVzmMDE5mdzokUml-81" target="wI0rlVzmMDE5mdzokUml-78" edge="1">
          <mxGeometry relative="1" as="geometry" />
        </mxCell>
        <mxCell id="wI0rlVzmMDE5mdzokUml-81" value="snap-1&#39;s&lt;br&gt;L1 table" style="rounded=0;whiteSpace=wrap;html=1;fillColor=#dae8fc;strokeColor=#6c8ebf;" parent="1" vertex="1">
          <mxGeometry x="1510" y="330" width="60" height="60" as="geometry" />
        </mxCell>
        <mxCell id="wI0rlVzmMDE5mdzokUml-82" value="Snap-1" style="rounded=0;whiteSpace=wrap;html=1;fillColor=#dae8fc;strokeColor=#6c8ebf;" parent="1" vertex="1">
          <mxGeometry x="1460" y="330" width="50" height="60" as="geometry" />
        </mxCell>
        <mxCell id="wI0rlVzmMDE5mdzokUml-83" value="snap-1&#39;s&lt;br&gt;L2 table" style="rounded=0;whiteSpace=wrap;html=1;fillColor=#dae8fc;strokeColor=#6c8ebf;" parent="1" vertex="1">
          <mxGeometry x="1570" y="330" width="60" height="60" as="geometry" />
        </mxCell>
        <mxCell id="wI0rlVzmMDE5mdzokUml-84" value="data" style="rounded=0;whiteSpace=wrap;html=1;" parent="1" vertex="1">
          <mxGeometry x="1630" y="330" width="50" height="60" as="geometry" />
        </mxCell>
        <mxCell id="wI0rlVzmMDE5mdzokUml-85" value="data" style="rounded=0;whiteSpace=wrap;html=1;" parent="1" vertex="1">
          <mxGeometry x="1680" y="330" width="50" height="60" as="geometry" />
        </mxCell>
        <mxCell id="wI0rlVzmMDE5mdzokUml-86" value="Backing image (base)" style="text;html=1;strokeColor=none;fillColor=none;align=center;verticalAlign=middle;whiteSpace=wrap;rounded=0;" parent="1" vertex="1">
          <mxGeometry x="890" y="345" width="100" height="30" as="geometry" />
        </mxCell>
        <mxCell id="wI0rlVzmMDE5mdzokUml-87" value="&lt;font style=&quot;font-size: 11px;&quot;&gt;Header&lt;/font&gt;" style="rounded=0;whiteSpace=wrap;html=1;" parent="1" vertex="1">
          <mxGeometry x="990" y="470" width="40" height="60" as="geometry" />
        </mxCell>
        <mxCell id="wI0rlVzmMDE5mdzokUml-88" value="refcount&lt;br&gt;table" style="rounded=0;whiteSpace=wrap;html=1;" parent="1" vertex="1">
          <mxGeometry x="1030" y="470" width="60" height="60" as="geometry" />
        </mxCell>
        <mxCell id="wI0rlVzmMDE5mdzokUml-89" value="refcount&lt;br&gt;block" style="rounded=0;whiteSpace=wrap;html=1;" parent="1" vertex="1">
          <mxGeometry x="1090" y="470" width="60" height="60" as="geometry" />
        </mxCell>
        <mxCell id="wI0rlVzmMDE5mdzokUml-90" value="L1 table" style="rounded=0;whiteSpace=wrap;html=1;" parent="1" vertex="1">
          <mxGeometry x="1150" y="470" width="60" height="60" as="geometry" />
        </mxCell>
        <mxCell id="wI0rlVzmMDE5mdzokUml-91" value="temporary image&lt;br&gt;(active)" style="text;html=1;strokeColor=none;fillColor=none;align=center;verticalAlign=middle;whiteSpace=wrap;rounded=0;" parent="1" vertex="1">
          <mxGeometry x="890" y="485" width="100" height="30" as="geometry" />
        </mxCell>
        <mxCell id="AbsNggpFnghS9GSkckr7-1" value="&lt;font style=&quot;font-size: 11px;&quot;&gt;refcount&lt;br&gt;table&lt;br&gt;&lt;/font&gt;" style="rounded=0;whiteSpace=wrap;html=1;fillColor=#d5e8d4;strokeColor=#82b366;" vertex="1" parent="1">
          <mxGeometry x="75" y="360" width="70" height="40" as="geometry" />
        </mxCell>
        <mxCell id="AbsNggpFnghS9GSkckr7-2" value="&lt;font style=&quot;font-size: 11px;&quot;&gt;refcount&lt;br&gt;block&lt;br&gt;&lt;/font&gt;" style="rounded=0;whiteSpace=wrap;html=1;fillColor=#d5e8d4;strokeColor=#82b366;" vertex="1" parent="1">
          <mxGeometry x="75" y="400" width="70" height="40" as="geometry" />
        </mxCell>
        <mxCell id="AbsNggpFnghS9GSkckr7-30" style="edgeStyle=orthogonalEdgeStyle;rounded=0;orthogonalLoop=1;jettySize=auto;html=1;exitX=0;exitY=0.5;exitDx=0;exitDy=0;entryX=0;entryY=0.25;entryDx=0;entryDy=0;fillColor=#d5e8d4;strokeColor=#82b366;" edge="1" parent="1" source="AbsNggpFnghS9GSkckr7-3" target="AbsNggpFnghS9GSkckr7-4">
          <mxGeometry relative="1" as="geometry">
            <mxPoint x="75.33333333333348" y="500" as="targetPoint" />
            <Array as="points">
              <mxPoint x="40" y="460" />
              <mxPoint x="40" y="490" />
            </Array>
          </mxGeometry>
        </mxCell>
        <mxCell id="AbsNggpFnghS9GSkckr7-3" value="&lt;font style=&quot;font-size: 11px;&quot;&gt;L1 table&lt;/font&gt;" style="rounded=0;whiteSpace=wrap;html=1;fillColor=#d5e8d4;strokeColor=#82b366;" vertex="1" parent="1">
          <mxGeometry x="75" y="440" width="70" height="40" as="geometry" />
        </mxCell>
        <mxCell id="AbsNggpFnghS9GSkckr7-28" style="edgeStyle=orthogonalEdgeStyle;rounded=0;orthogonalLoop=1;jettySize=auto;html=1;entryX=0;entryY=0.5;entryDx=0;entryDy=0;exitX=0;exitY=0.25;exitDx=0;exitDy=0;fillColor=#d5e8d4;strokeColor=#82b366;" edge="1" parent="1" source="AbsNggpFnghS9GSkckr7-4" target="AbsNggpFnghS9GSkckr7-6">
          <mxGeometry relative="1" as="geometry">
            <Array as="points">
              <mxPoint x="75" y="500" />
              <mxPoint x="55" y="500" />
              <mxPoint x="55" y="580" />
            </Array>
          </mxGeometry>
        </mxCell>
        <mxCell id="AbsNggpFnghS9GSkckr7-4" value="&lt;font style=&quot;font-size: 11px;&quot;&gt;L2 table&lt;/font&gt;" style="rounded=0;whiteSpace=wrap;html=1;fillColor=#d5e8d4;strokeColor=#82b366;" vertex="1" parent="1">
          <mxGeometry x="75" y="480" width="70" height="40" as="geometry" />
        </mxCell>
        <mxCell id="AbsNggpFnghS9GSkckr7-5" value="&lt;font style=&quot;font-size: 11px;&quot;&gt;data&lt;/font&gt;" style="rounded=0;whiteSpace=wrap;html=1;fillColor=#dae8fc;strokeColor=#6c8ebf;" vertex="1" parent="1">
          <mxGeometry x="75" y="520" width="70" height="40" as="geometry" />
        </mxCell>
        <mxCell id="AbsNggpFnghS9GSkckr7-6" value="&lt;font style=&quot;font-size: 11px;&quot;&gt;data&lt;/font&gt;" style="rounded=0;whiteSpace=wrap;html=1;fillColor=#ffe6cc;strokeColor=#d79b00;" vertex="1" parent="1">
          <mxGeometry x="75" y="560" width="70" height="40" as="geometry" />
        </mxCell>
        <mxCell id="AbsNggpFnghS9GSkckr7-7" value="&lt;font style=&quot;font-size: 11px;&quot;&gt;data&lt;/font&gt;" style="rounded=0;whiteSpace=wrap;html=1;fillColor=#f8cecc;strokeColor=#b85450;" vertex="1" parent="1">
          <mxGeometry x="75" y="720" width="70" height="40" as="geometry" />
        </mxCell>
        <mxCell id="AbsNggpFnghS9GSkckr7-8" value="&lt;font style=&quot;font-size: 11px;&quot;&gt;snap-1&lt;/font&gt;" style="rounded=0;whiteSpace=wrap;html=1;fillColor=#dae8fc;strokeColor=#6c8ebf;" vertex="1" parent="1">
          <mxGeometry x="75" y="600" width="70" height="40" as="geometry" />
        </mxCell>
        <mxCell id="AbsNggpFnghS9GSkckr7-29" style="edgeStyle=orthogonalEdgeStyle;rounded=0;orthogonalLoop=1;jettySize=auto;html=1;entryX=1;entryY=0.75;entryDx=0;entryDy=0;fillColor=#dae8fc;strokeColor=#6c8ebf;" edge="1" parent="1" source="AbsNggpFnghS9GSkckr7-9" target="AbsNggpFnghS9GSkckr7-4">
          <mxGeometry relative="1" as="geometry">
            <Array as="points">
              <mxPoint x="190" y="660" />
              <mxPoint x="190" y="510" />
            </Array>
          </mxGeometry>
        </mxCell>
        <mxCell id="AbsNggpFnghS9GSkckr7-9" value="&lt;font style=&quot;font-size: 11px;&quot;&gt;snap-1&#39;s&lt;br&gt;L1 table&lt;br&gt;&lt;/font&gt;" style="rounded=0;whiteSpace=wrap;html=1;fillColor=#dae8fc;strokeColor=#6c8ebf;" vertex="1" parent="1">
          <mxGeometry x="75" y="640" width="70" height="40" as="geometry" />
        </mxCell>
        <mxCell id="AbsNggpFnghS9GSkckr7-24" style="edgeStyle=orthogonalEdgeStyle;rounded=0;orthogonalLoop=1;jettySize=auto;html=1;entryX=1;entryY=0.5;entryDx=0;entryDy=0;fillColor=#dae8fc;strokeColor=#6c8ebf;" edge="1" parent="1" source="AbsNggpFnghS9GSkckr7-10" target="AbsNggpFnghS9GSkckr7-5">
          <mxGeometry relative="1" as="geometry">
            <Array as="points">
              <mxPoint x="165" y="700" />
              <mxPoint x="165" y="540" />
            </Array>
          </mxGeometry>
        </mxCell>
        <mxCell id="AbsNggpFnghS9GSkckr7-10" value="&lt;font style=&quot;font-size: 11px;&quot;&gt;snap-1&#39;s&lt;br&gt;L2 table&lt;br&gt;&lt;/font&gt;" style="rounded=0;whiteSpace=wrap;html=1;fillColor=#dae8fc;strokeColor=#6c8ebf;" vertex="1" parent="1">
          <mxGeometry x="75" y="680" width="70" height="40" as="geometry" />
        </mxCell>
        <mxCell id="AbsNggpFnghS9GSkckr7-11" value="&lt;font style=&quot;font-size: 11px;&quot;&gt;data&lt;/font&gt;" style="rounded=0;whiteSpace=wrap;html=1;fillColor=#ffe6cc;strokeColor=#d79b00;" vertex="1" parent="1">
          <mxGeometry x="75" y="760" width="70" height="40" as="geometry" />
        </mxCell>
        <mxCell id="AbsNggpFnghS9GSkckr7-12" value="&lt;font style=&quot;font-size: 11px;&quot;&gt;snap-2&lt;/font&gt;" style="rounded=0;whiteSpace=wrap;html=1;fillColor=#ffe6cc;strokeColor=#d79b00;" vertex="1" parent="1">
          <mxGeometry x="75" y="800" width="70" height="40" as="geometry" />
        </mxCell>
        <mxCell id="AbsNggpFnghS9GSkckr7-13" value="&lt;font style=&quot;font-size: 11px;&quot;&gt;snap-2&#39;s&lt;br&gt;L1 table&lt;br&gt;&lt;/font&gt;" style="rounded=0;whiteSpace=wrap;html=1;fillColor=#ffe6cc;strokeColor=#d79b00;" vertex="1" parent="1">
          <mxGeometry x="75" y="840" width="70" height="40" as="geometry" />
        </mxCell>
        <mxCell id="AbsNggpFnghS9GSkckr7-25" style="edgeStyle=orthogonalEdgeStyle;rounded=0;orthogonalLoop=1;jettySize=auto;html=1;exitX=0;exitY=0.5;exitDx=0;exitDy=0;entryX=1;entryY=0.5;entryDx=0;entryDy=0;fillColor=#ffe6cc;strokeColor=#d79b00;" edge="1" parent="1" source="AbsNggpFnghS9GSkckr7-14" target="AbsNggpFnghS9GSkckr7-6">
          <mxGeometry relative="1" as="geometry">
            <Array as="points">
              <mxPoint x="180" y="900" />
              <mxPoint x="180" y="580" />
            </Array>
          </mxGeometry>
        </mxCell>
        <mxCell id="AbsNggpFnghS9GSkckr7-26" style="edgeStyle=orthogonalEdgeStyle;rounded=0;orthogonalLoop=1;jettySize=auto;html=1;exitX=0;exitY=0.5;exitDx=0;exitDy=0;entryX=1;entryY=0.5;entryDx=0;entryDy=0;fillColor=#ffe6cc;strokeColor=#d79b00;" edge="1" parent="1" source="AbsNggpFnghS9GSkckr7-14" target="AbsNggpFnghS9GSkckr7-11">
          <mxGeometry relative="1" as="geometry">
            <Array as="points">
              <mxPoint x="180" y="900" />
              <mxPoint x="180" y="780" />
            </Array>
          </mxGeometry>
        </mxCell>
        <mxCell id="AbsNggpFnghS9GSkckr7-14" value="&lt;font style=&quot;font-size: 11px;&quot;&gt;snap-2&#39;s&lt;br&gt;L2 table&lt;br&gt;&lt;/font&gt;" style="rounded=0;whiteSpace=wrap;html=1;fillColor=#ffe6cc;strokeColor=#d79b00;" vertex="1" parent="1">
          <mxGeometry x="75" y="880" width="70" height="40" as="geometry" />
        </mxCell>
        <mxCell id="AbsNggpFnghS9GSkckr7-15" value="&lt;font style=&quot;font-size: 11px;&quot;&gt;data&lt;/font&gt;" style="rounded=0;whiteSpace=wrap;html=1;fillColor=#f8cecc;strokeColor=#b85450;" vertex="1" parent="1">
          <mxGeometry x="75" y="920" width="70" height="40" as="geometry" />
        </mxCell>
        <mxCell id="AbsNggpFnghS9GSkckr7-23" style="edgeStyle=orthogonalEdgeStyle;rounded=0;orthogonalLoop=1;jettySize=auto;html=1;exitX=0;exitY=0.5;exitDx=0;exitDy=0;entryX=1;entryY=0.5;entryDx=0;entryDy=0;" edge="1" parent="1" source="AbsNggpFnghS9GSkckr7-16" target="wI0rlVzmMDE5mdzokUml-28">
          <mxGeometry relative="1" as="geometry" />
        </mxCell>
        <mxCell id="AbsNggpFnghS9GSkckr7-16" value="&lt;font style=&quot;font-size: 11px;&quot;&gt;Header&lt;/font&gt;" style="rounded=0;whiteSpace=wrap;html=1;" vertex="1" parent="1">
          <mxGeometry x="255" y="320" width="70" height="40" as="geometry" />
        </mxCell>
        <mxCell id="AbsNggpFnghS9GSkckr7-17" value="&lt;font style=&quot;font-size: 11px;&quot;&gt;refcount&lt;br&gt;table&lt;br&gt;&lt;/font&gt;" style="rounded=0;whiteSpace=wrap;html=1;" vertex="1" parent="1">
          <mxGeometry x="255" y="360" width="70" height="40" as="geometry" />
        </mxCell>
        <mxCell id="AbsNggpFnghS9GSkckr7-18" value="&lt;font style=&quot;font-size: 11px;&quot;&gt;refcount&lt;br&gt;block&lt;br&gt;&lt;/font&gt;" style="rounded=0;whiteSpace=wrap;html=1;" vertex="1" parent="1">
          <mxGeometry x="255" y="400" width="70" height="40" as="geometry" />
        </mxCell>
        <mxCell id="AbsNggpFnghS9GSkckr7-19" value="&lt;font style=&quot;font-size: 11px;&quot;&gt;L1 table&lt;/font&gt;" style="rounded=0;whiteSpace=wrap;html=1;" vertex="1" parent="1">
          <mxGeometry x="255" y="440" width="70" height="40" as="geometry" />
        </mxCell>
        <mxCell id="AbsNggpFnghS9GSkckr7-20" value="&lt;font style=&quot;font-size: 11px;&quot;&gt;L2 table&lt;/font&gt;" style="rounded=0;whiteSpace=wrap;html=1;" vertex="1" parent="1">
          <mxGeometry x="255" y="480" width="70" height="40" as="geometry" />
        </mxCell>
        <mxCell id="AbsNggpFnghS9GSkckr7-21" value="&lt;font style=&quot;font-size: 11px;&quot;&gt;data&lt;/font&gt;" style="rounded=0;whiteSpace=wrap;html=1;" vertex="1" parent="1">
          <mxGeometry x="255" y="520" width="70" height="40" as="geometry" />
        </mxCell>
        <mxCell id="AbsNggpFnghS9GSkckr7-22" value="&lt;font style=&quot;font-size: 11px;&quot;&gt;data&lt;/font&gt;" style="rounded=0;whiteSpace=wrap;html=1;" vertex="1" parent="1">
          <mxGeometry x="255" y="560" width="70" height="40" as="geometry" />
        </mxCell>
      </root>
    </mxGraphModel>
  </diagram>
</mxfile>
